<?xml version="1.0" standalone="no"?>
<!DOCTYPE svg PUBLIC "-//W3C//DTD SVG 20010904//EN"
 "http://www.w3.org/TR/2001/REC-SVG-20010904/DTD/svg10.dtd">
<svg version="1.0" xmlns="http://www.w3.org/2000/svg"
 width="500pt" height="500pt" viewBox="0 0 2494.000000 2494.000000"
 preserveAspectRatio="xMidYMid meet">
<metadata>
Created by potrace 1.13, written by Peter Selinger 2001-2015
</metadata>
<g transform="translate(0.000000,2494.000000) scale(0.100000,-0.100000)"
fill="#000000" stroke="none">
<path d="M3260 18711 c-228 -50 -368 -183 -426 -406 -24 -93 -24 -330 0 -465
75 -423 314 -1054 653 -1729 79 -156 143 -285 143 -286 0 -2 -42 -23 -92 -49
-113 -55 -172 -105 -232 -194 -86 -130 -116 -248 -116 -461 0 -215 43 -432
146 -734 58 -168 113 -294 232 -532 613 -1227 1475 -2510 2552 -3800 272 -326
315 -374 318 -360 2 7 -13 156 -33 331 -19 176 -67 598 -105 939 -167 1490
-201 1779 -210 1789 -5 6 -52 55 -104 109 -305 313 -571 645 -841 1047 -180
270 -259 413 -291 535 -64 236 90 280 561 161 532 -134 1313 -405 1935 -670
l105 -45 -180 -3 -179 -3 -8 -45 c-13 -70 -46 -356 -54 -452 l-6 -88 856 0
856 0 292 -146 c161 -80 417 -209 568 -287 l274 -142 -1423 -3 -1424 -2 7
-124 c3 -68 15 -195 26 -282 11 -88 20 -165 20 -171 0 -10 397 -13 1953 -13
l1952 0 385 -211 c212 -116 465 -254 562 -307 l177 -97 -2445 -3 -2444 -2 6
-28 c16 -61 114 -354 153 -454 l43 -108 2885 0 2885 0 321 -176 c177 -97 414
-226 526 -288 l204 -111 -3267 -3 c-2420 -1 -3266 -5 -3266 -13 0 -7 10 -28
22 -48 101 -169 175 -286 256 -404 l96 -137 3637 0 3638 0 118 -64 c178 -96
736 -391 1068 -566 854 -448 1972 -1006 2695 -1343 1139 -530 1547 -690 1955
-763 142 -26 404 -26 500 0 264 70 397 243 421 546 31 396 -228 1173 -698
2098 -65 127 -118 234 -118 236 0 2 34 20 76 40 201 95 314 248 355 480 19
110 6 375 -25 523 -63 295 -171 585 -357 953 -316 628 -666 1221 -1095 1860
-135 201 -360 525 -420 605 -13 17 -98 131 -190 255 -204 274 -468 614 -619
795 -22 28 -106 129 -186 225 -233 282 -349 413 -349 393 0 -16 70 -648 270
-2422 38 -343 71 -626 73 -628 391 -390 779 -876 1057 -1323 223 -360 257
-531 116 -585 -38 -15 -65 -17 -154 -12 -125 7 -187 20 -457 93 -733 200
-1476 477 -2394 892 l-215 97 571 3 571 2 11 78 c12 84 37 336 44 445 l5 67
-1211 0 -1210 0 -291 151 c-402 210 -779 410 -790 420 -6 5 750 9 1743 9
l1754 0 -7 103 c-6 90 -36 346 -53 449 l-6 38 -2269 0 -2270 0 -261 143 c-144
79 -380 209 -525 288 l-263 144 2726 3 c1540 1 2725 6 2725 11 0 36 -179 552
-199 573 -4 4 -1431 8 -3172 8 l-3165 0 -259 143 c-143 78 -392 214 -554 302
l-294 160 3571 5 3571 5 -92 150 c-93 152 -174 272 -254 378 l-44 57 -3930 0
-3930 0 -267 141 c-1860 986 -3846 1938 -4532 2174 -153 52 -352 106 -485 130
-142 26 -381 29 -485 6z m1415 -1276 c486 -64 1162 -288 2010 -668 178 -80
241 -109 490 -225 55 -25 268 -130 473 -232 l372 -185 -77 -115 c-42 -63 -107
-165 -144 -227 l-68 -113 584 0 584 0 298 -159 c698 -371 833 -443 833 -446 0
-2 -21 -3 -47 -3 -27 0 -611 0 -1300 -1 l-1252 -1 -49 -127 c-27 -71 -59 -158
-72 -196 -12 -37 -25 -65 -28 -63 -4 2 -97 47 -207 101 -110 54 -301 147 -425
207 -881 430 -1108 528 -1540 664 -331 105 -796 212 -933 215 -91 2 -94 5
-187 214 -66 150 -150 403 -185 560 -35 156 -44 332 -21 428 49 210 197 335
444 377 81 13 326 11 447 -5z m6766 -3123 c162 -88 350 -189 419 -227 69 -37
172 -92 230 -123 58 -30 109 -59 115 -63 5 -5 -750 -9 -1688 -9 l-1696 0 -43
24 c-24 12 -191 99 -373 191 -402 204 -699 357 -704 361 -2 2 772 4 1720 4
l1725 0 295 -158z m2411 -1299 l536 -288 -1675 -3 -1674 -2 -492 261 c-271
144 -514 275 -542 290 l-50 29 1680 0 1681 0 536 -287z m2107 -1115 c245 -127
514 -266 596 -309 l150 -79 -1712 0 -1712 0 -428 231 c-235 127 -493 267 -573
310 l-145 79 1689 0 1688 0 447 -232z m1890 -959 c433 -213 789 -386 976 -474
50 -23 131 -62 180 -85 116 -55 318 -139 470 -197 438 -165 961 -302 1269
-332 54 -6 100 -12 103 -14 18 -19 156 -353 199 -482 126 -386 146 -639 64
-814 -167 -352 -727 -375 -1669 -69 -158 51 -524 186 -681 251 -47 19 -139 58
-205 85 -339 140 -793 353 -1400 657 l-540 270 158 5 157 5 36 50 c125 173
334 507 334 533 0 10 -200 12 -916 12 l-916 0 -396 211 c-219 117 -461 246
-539 288 l-142 76 1601 5 1602 5 20 58 c12 31 22 57 24 57 2 0 97 -46 211
-101z"/>
<path d="M12240 18433 c-626 -34 -1206 -160 -1775 -386 l-180 -72 1113 -3
c613 -1 1612 -1 2220 0 l1107 3 -90 37 c-585 243 -1173 378 -1815 418 -150 9
-442 11 -580 3z"/>
<path d="M9210 17343 c-150 -112 -305 -242 -459 -384 l-124 -114 1942 -3
c1069 -1 2814 -1 3879 0 l1936 3 -125 116 c-154 141 -303 266 -457 382 l-117
87 -3180 0 -3180 0 -115 -87z"/>
<path d="M8720 9027 c135 -131 312 -283 463 -396 l94 -71 3230 0 3231 0 94 72
c144 111 300 243 451 383 75 70 137 129 137 131 0 2 -1761 4 -3912 4 l-3913
-1 125 -122z"/>
<path d="M10260 7993 c41 -19 140 -61 220 -93 1283 -512 2758 -513 4042 -4 78
31 178 73 222 94 l81 38 -2320 0 -2320 0 75 -35z"/>
</g>
</svg>
